<svg t="1747035120223" class="icon" viewBox="0 0 1024 1024" version="1.1" xmlns="http://www.w3.org/2000/svg" p-id="4955" width="200" height="200"><path d="M832 981.333333a21.333333 21.333333 0 0 1-11.333333-3.24l-330-206.266666-330 206.266666a21.333333 21.333333 0 0 1-32.666667-18.093333V181.333333a53.393333 53.393333 0 0 1 53.333333-53.333333h618.666667a53.393333 53.393333 0 0 1 53.333333 53.333333v778.666667a21.333333 21.333333 0 0 1-21.333333 21.333333z m-341.333333-256a21.333333 21.333333 0 0 1 11.333333 3.24l308.666667 192.933334V181.333333a10.666667 10.666667 0 0 0-10.666667-10.666666H181.333333a10.666667 10.666667 0 0 0-10.666666 10.666666v740.173334l308.666666-192.933334a21.333333 21.333333 0 0 1 11.333334-3.24z m448 64V96a53.393333 53.393333 0 0 0-53.333334-53.333333H320a21.333333 21.333333 0 0 0 0 42.666666h565.333333a10.666667 10.666667 0 0 1 10.666667 10.666667v693.333333a21.333333 21.333333 0 0 0 42.666667 0z" fill="#5C5C66" p-id="4956"></path></svg>